<?xml version="1.0" encoding="utf-8"?>
<!-- Generated by IcoMoon.io -->
<!DOCTYPE svg PUBLIC "-//W3C//DTD SVG 1.1//EN" "http://www.w3.org/Graphics/SVG/1.1/DTD/svg11.dtd">
<svg version="1.1" xmlns="http://www.w3.org/2000/svg" xmlns:xlink="http://www.w3.org/1999/xlink" viewBox="0 0 752 32">

	<svg id="icon-icon-info" viewBox="0 0 32 32" >
		<path d="M14.667 14.667h2.667v9.333h-2.667v-9.333z"></path>
		<path d="M14.667 8h2.667v4h-2.667v-4z"></path>
		<path d="M16 0c-8.8 0-16 7.2-16 16s7.2 16 16 16 16-7.2 16-16-7.2-16-16-16zM16 29.333c-7.333 0-13.333-6-13.333-13.333s6-13.333 13.333-13.333 13.333 6 13.333 13.333-6 13.333-13.333 13.333z"></path>
	</svg>

	<svg id="icon-icon-offsite" viewBox="0 0 32 32">
		<path d="M16 15c-1.657 0-3-1.343-3-3s1.343-3 3-3c1.657 0 3 1.343 3 3s-1.343 3-3 3v0zM16 7c-2.761 0-5 2.238-5 5s2.239 5 5 5c2.761 0 5-2.238 5-5s-2.239-5-5-5v0zM16 29c-1.663 0.009-10-12.819-10-17 0-5.522 4.477-10 10-10s10 4.478 10 10c0 4.125-8.363 17.009-10 17v0zM16 0c-6.627 0-12 5.373-12 12 0 5.018 10.005 20.011 12 20 1.964 0.011 12-15.050 12-20 0-6.627-5.373-12-12-12v0z"></path>
	</svg>

	<svg id="icon-icon-instructions" viewBox="0 0 32 32">
		<path d="M23 14h-14c-0.553 0-1 0.448-1 1 0 0.553 0.447 1 1 1h14c0.553 0 1-0.447 1-1 0-0.552-0.447-1-1-1v0zM28 28c0 1.104-0.896 2-2 2h-20c-1.104 0-2-0.896-2-2v-20c0-1.104 0.896-2 2-2h3v4h14v-4h3c1.104 0 2 0.896 2 2v20zM11 4h2.223c0-1.104 1.243-2 2.777-2s2.777 0.896 2.777 2h2.223v4h-10v-4zM26 4h-3v-2h-2.693c-0.867-1.19-2.461-2-4.307-2s-3.44 0.81-4.307 2h-2.693v2h-3c-2.209 0-4 1.791-4 4v20c0 2.209 1.791 4 4 4h20c2.209 0 4-1.791 4-4v-20c0-2.209-1.791-4-4-4v0zM23 24h-14c-0.553 0-1 0.448-1 1 0 0.553 0.447 1 1 1h14c0.553 0 1-0.447 1-1 0-0.552-0.447-1-1-1v0zM23 19h-14c-0.553 0-1 0.448-1 1 0 0.553 0.447 1 1 1h14c0.553 0 1-0.447 1-1 0-0.552-0.447-1-1-1v0z"></path>
	</svg>

	<svg id="icon-icon-branch" viewBox="0 0 32 32">
		<path d="M24.537 17.822c-0.157 0.103-0.335 0.178-0.537 0.178h-18c-0.552 0-1-0.447-1-1v-8c0-0.552 0.448-1 1-1h18c0.213 0 0.399 0.081 0.561 0.194l2.402 4.79-2.426 4.838zM17 28c0 1.104-0.896 2-2 2h-2c-1.104 0-2-0.896-2-2v-8h6v8zM11 4c0-1.104 0.896-2 2-2h2c1.104 0 2 0.896 2 2v2h-6v-2zM28.717 12.224l-2.98-5.942c-0.213-0.213-0.496-0.3-0.775-0.282h-5.962v-2c0-2.209-1.791-4-4-4h-2c-2.209 0-4 1.791-4 4v2h-4c-1.104 0-2 0.896-2 2v10c0 1.104 0.896 2 2 2h4v8c0 2.209 1.791 4 4 4h2c2.209 0 4-1.791 4-4v-8h6v-0.024c0.266 0.006 0.534-0.086 0.737-0.288l2.98-5.943c0.225-0.42 0.255-0.557 0.285-0.761 0.014-0.273-0.075-0.38-0.285-0.76v0z"></path>
	</svg>

	<svg id="icon-icon-fees" viewBox="0 0 7 15">
		<path d="M3.9,6.7C2.3,6,1.6,5.5,1.6,4.6C1.6,3.9,2.1,3,3.5,3
		c1.2,0,1.8,0.5,2.3,0.7l0.5-1.2C5.8,2.3,4.8,1.8,3.9,1.8V0H2.8v1.8C1.2,2.1,0,3.2,0,4.8c0,1.6,1.2,2.5,3,3.2
		c1.4,0.5,2.1,1.2,2.1,2.1C5.1,11.3,4.2,12,3,12c-0.9,0-2.1-0.5-2.5-0.7L0,12.5c0.7,0.5,1.8,0.7,2.8,0.7V15h1.2v-1.8
		c1.8-0.2,3-1.6,3-3.2C6.7,8.5,5.8,7.4,3.9,6.7z"/>
	</svg>

	<svg id="icon-icon-pickup" viewBox="0 0 325 137">
		<path d="M304.1,98.6c-3,3.9-7.8,6.3-12.8,6.3h-0.2
		c-0.2-20.8-17.2-37.6-38-37.6s-37.7,16.8-38,37.6h-96.8c-0.2-20.8-17.2-37.6-38-37.6c-20.8,0-37.7,16.8-38,37.6h-4.6
		c-3.6,0-7-1.3-9.6-3.7l-3.9-3.5c-1.2-1.1-2.2-2.3-3.1-3.7h7.3c5,0,9-4,9-9c0-5-4-9-9-9h-7.4c0-0.1,0.1-0.1,0.1-0.2l2.9-4.5
		c1.7-2.6,4.3-4.3,7.3-4.9l57.2-10.1h205.6l2.9,2.5c2.4,2.1,3.8,5.1,3.8,8.4v10.2c0,2.3,0.8,4.4,2.4,6.1c2,2.2,3.1,5,3.1,7.9
		C306.5,94.1,305.7,96.6,304.1,98.6z M233.1,105.3c0-11,9-20,20-20c11,0,20,9,20,20c0,11-9,20-20,20
		C242.1,125.3,233.1,116.3,233.1,105.3z M101.3,137c5.3-3.5,9.7-8.4,12.7-14.1h105.4c3,5.7,7.4,10.5,12.7,14.1H101.3z M60.4,105.3
		c0-11,9-20,20-20s20,9,20,20c0,11-9,20-20,20S60.4,116.3,60.4,105.3z M137.3,21.1c1.9-1.5,4.3-2.3,6.7-2.3h31.3l-4.5,19.6h-56.3
		L137.3,21.1z M237.3,38.4h-47.9l4.5-19.6h38.4L237.3,38.4z M273.5,38.4h-17.6l-4.8-18.7c1.1,0.5,2.1,1.1,3,1.8L273.5,38.4z
		 M319.1,67.3c0-8.4-3.7-16.4-10-22L265.8,7.9c-5.3-4.6-12.1-7.1-19.1-7.1H144.1c-6.3,0-12.6,2.1-17.6,5.9L84.2,38.9l-55.8,9.9
		c-7.9,1.4-14.9,6.1-19.3,12.8l-2.9,4.5c-3.7,5.7-5.6,12.2-5.6,19c0,5,1,9.8,3.1,14.3c2,4.5,4.9,8.5,8.7,11.8l3.9,3.5
		c6,5.3,13.6,8.2,21.6,8.2h8.9c3,5.7,7.4,10.5,12.7,14.1h214.6c5.3-3.5,9.7-8.4,12.7-14.1h4.5c10.5,0,20.6-5,27.1-13.3
		c4-5.2,6.2-11.6,6.2-18.2c0-6.2-1.9-12.2-5.5-17.2V67.3z"/>
	</svg>
</svg>









